<svg width="227" height="152" viewBox="0 0 227 152" fill="none" xmlns="http://www.w3.org/2000/svg">
<circle cx="161.858" cy="119.958" r="1.64324" fill="#336633"/>
<circle cx="54.2253" cy="59.1569" r="1.64324" fill="#336633"/>
<circle cx="3.28777" cy="4.93035" r="1.64324" fill="#336633"/>
<circle cx="3.28649" cy="121.601" r="3.28649" fill="#336633"/>
<circle cx="107.633" cy="18.8965" r="4.92973" fill="#336633"/>
<circle cx="221.836" cy="103.523" r="4.92973" fill="#336633"/>
<circle cx="19.7188" cy="82.9844" r="4.92973" fill="#336633"/>
<path d="M98.2923 127.987C95.6438 127.992 93.0656 127.137 90.9465 125.551L90.8151 125.453L63.1513 104.309C61.8701 103.329 60.7949 102.107 59.9869 100.712C59.1789 99.3177 58.654 97.7778 58.4422 96.1805C58.2304 94.5833 58.3359 92.96 58.7525 91.4035C59.1691 89.8469 59.8888 88.3875 60.8704 87.1086C61.8521 85.8296 63.0764 84.7563 64.4736 83.9497C65.8708 83.1431 67.4135 82.6191 69.0135 82.4077C70.6136 82.1963 72.2396 82.3015 73.7989 82.7174C75.3582 83.1333 76.8202 83.8517 78.1014 84.8317L96.0199 98.5473L138.364 43.4207C139.346 42.1421 140.571 41.0692 141.969 40.2631C143.366 39.457 144.909 38.9336 146.509 38.7227C148.109 38.5118 149.735 38.6177 151.294 39.0342C152.853 39.4507 154.315 40.1696 155.596 41.1501L155.333 41.5069L155.603 41.1553C158.186 43.1374 159.877 46.0617 160.303 49.2865C160.73 52.5114 159.857 55.7734 157.877 58.3569L108.07 123.199C106.918 124.693 105.437 125.902 103.741 126.733C102.046 127.563 100.181 127.992 98.2923 127.987Z" fill="#336633"/>
<path d="M3.28516 35.3301L9.68749 36.2786C12.7969 36.7392 15.9572 36.7392 19.0666 36.2786L25.4689 35.3301V36.9733L19.0666 37.9218C15.9572 38.3825 12.7969 38.3825 9.68749 37.9218L3.28516 36.9733V35.3301Z" fill="#336633"/>
<path d="M122.422 148.713L128.824 149.661C131.934 150.122 135.094 150.122 138.203 149.661L144.606 148.713V150.356L138.203 151.305C135.094 151.765 131.934 151.765 128.824 151.305L122.422 150.356V148.713Z" fill="#336633"/>
<path d="M161.859 0L168.262 0.948494C171.371 1.40915 174.531 1.40915 177.641 0.948494L184.043 0V1.64324L177.641 2.59174C174.531 3.05239 171.371 3.05239 168.262 2.59174L161.859 1.64324V0Z" fill="#336633"/>
<path d="M180.758 82.9844L181.706 76.582C182.167 73.4726 182.167 70.3123 181.706 67.2029L180.758 60.8006H182.401L183.35 67.2029C183.81 70.3123 183.81 73.4726 183.35 76.582L182.401 82.9844H180.758Z" fill="#336633"/>
<path d="M54.2266 152L55.1751 145.598C55.6357 142.488 55.6357 139.328 55.1751 136.219L54.2266 129.816H55.8698L56.8183 136.219C57.279 139.328 57.279 142.488 56.8183 145.598L55.8698 152H54.2266Z" fill="#336633"/>
</svg>
