<svg width="20" height="20" viewBox="0 0 20 20" fill="none" xmlns="http://www.w3.org/2000/svg">
<mask id="mask0_2744_19360" style="mask-type:alpha" maskUnits="userSpaceOnUse" x="0" y="0" width="20" height="20">
<rect width="20" height="20" fill="#D9D9D9"/>
</mask>
<g mask="url(#mask0_2744_19360)">
<path d="M4.42439 17.9167C4.00344 17.9167 3.64714 17.7709 3.35547 17.4792C3.0638 17.1876 2.91797 16.8313 2.91797 16.4103V5.25653C2.91797 4.83559 3.0638 4.47928 3.35547 4.18762C3.64714 3.89595 4.00344 3.75012 4.42439 3.75012H5.57824V1.9873H6.86026V3.75012H13.1743V1.9873H14.4243V3.75012H15.5782C15.9991 3.75012 16.3554 3.89595 16.6471 4.18762C16.9388 4.47928 17.0846 4.83559 17.0846 5.25653V16.4103C17.0846 16.8313 16.9388 17.1876 16.6471 17.4792C16.3554 17.7709 15.9991 17.9167 15.5782 17.9167H4.42439ZM4.42439 16.6668H15.5782C15.6423 16.6668 15.7011 16.6401 15.7545 16.5866C15.8079 16.5332 15.8346 16.4744 15.8346 16.4103V8.58987H4.16795V16.4103C4.16795 16.4744 4.19466 16.5332 4.24807 16.5866C4.3015 16.6401 4.36027 16.6668 4.42439 16.6668ZM4.16795 7.33989H15.8346V5.25653C15.8346 5.19242 15.8079 5.13365 15.7545 5.08022C15.7011 5.02681 15.6423 5.0001 15.5782 5.0001H4.42439C4.36027 5.0001 4.3015 5.02681 4.24807 5.08022C4.19466 5.13365 4.16795 5.19242 4.16795 5.25653V7.33989ZM10.0013 11.7309C9.79723 11.7309 9.62335 11.659 9.47966 11.5153C9.33596 11.3716 9.26411 11.1978 9.26411 10.9937C9.26411 10.7896 9.33596 10.6158 9.47966 10.4721C9.62335 10.3284 9.79723 10.2565 10.0013 10.2565C10.2053 10.2565 10.3792 10.3284 10.5229 10.4721C10.6666 10.6158 10.7384 10.7896 10.7384 10.9937C10.7384 11.1978 10.6666 11.3716 10.5229 11.5153C10.3792 11.659 10.2053 11.7309 10.0013 11.7309ZM6.66795 11.7309C6.46389 11.7309 6.29002 11.659 6.14632 11.5153C6.00263 11.3716 5.93078 11.1978 5.93078 10.9937C5.93078 10.7896 6.00263 10.6158 6.14632 10.4721C6.29002 10.3284 6.46389 10.2565 6.66795 10.2565C6.872 10.2565 7.04588 10.3284 7.18957 10.4721C7.33327 10.6158 7.40511 10.7896 7.40511 10.9937C7.40511 11.1978 7.33327 11.3716 7.18957 11.5153C7.04588 11.659 6.872 11.7309 6.66795 11.7309ZM13.3346 11.7309C13.1306 11.7309 12.9567 11.659 12.813 11.5153C12.6693 11.3716 12.5974 11.1978 12.5974 10.9937C12.5974 10.7896 12.6693 10.6158 12.813 10.4721C12.9567 10.3284 13.1306 10.2565 13.3346 10.2565C13.5387 10.2565 13.7125 10.3284 13.8562 10.4721C13.9999 10.6158 14.0718 10.7896 14.0718 10.9937C14.0718 11.1978 13.9999 11.3716 13.8562 11.5153C13.7125 11.659 13.5387 11.7309 13.3346 11.7309ZM10.0013 15.0001C9.79723 15.0001 9.62335 14.9282 9.47966 14.7846C9.33596 14.6409 9.26411 14.467 9.26411 14.2629C9.26411 14.0589 9.33596 13.885 9.47966 13.7413C9.62335 13.5976 9.79723 13.5257 10.0013 13.5257C10.2053 13.5257 10.3792 13.5976 10.5229 13.7413C10.6666 13.885 10.7384 14.0589 10.7384 14.2629C10.7384 14.467 10.6666 14.6409 10.5229 14.7846C10.3792 14.9282 10.2053 15.0001 10.0013 15.0001ZM6.66795 15.0001C6.46389 15.0001 6.29002 14.9282 6.14632 14.7846C6.00263 14.6409 5.93078 14.467 5.93078 14.2629C5.93078 14.0589 6.00263 13.885 6.14632 13.7413C6.29002 13.5976 6.46389 13.5257 6.66795 13.5257C6.872 13.5257 7.04588 13.5976 7.18957 13.7413C7.33327 13.885 7.40511 14.0589 7.40511 14.2629C7.40511 14.467 7.33327 14.6409 7.18957 14.7846C7.04588 14.9282 6.872 15.0001 6.66795 15.0001ZM13.3346 15.0001C13.1306 15.0001 12.9567 14.9282 12.813 14.7846C12.6693 14.6409 12.5974 14.467 12.5974 14.2629C12.5974 14.0589 12.6693 13.885 12.813 13.7413C12.9567 13.5976 13.1306 13.5257 13.3346 13.5257C13.5387 13.5257 13.7125 13.5976 13.8562 13.7413C13.9999 13.885 14.0718 14.0589 14.0718 14.2629C14.0718 14.467 13.9999 14.6409 13.8562 14.7846C13.7125 14.9282 13.5387 15.0001 13.3346 15.0001Z" fill="#868686"/>
</g>
</svg>
