<svg width="14" height="13" viewBox="0 0 14 13" fill="none" xmlns="http://www.w3.org/2000/svg">
<path d="M1.20513 12.6666C0.868378 12.6666 0.583333 12.55 0.35 12.3166C0.116667 12.0833 0 11.7983 0 11.4615V3.8718C0 3.53505 0.116667 3.25 0.35 3.01667C0.583333 2.78333 0.868378 2.66667 1.20513 2.66667H3.24102L4.47435 1.33333H8.2051V2.33332H4.91023L3.68717 3.66665H1.20513C1.1453 3.66665 1.09615 3.68588 1.05768 3.72435C1.01922 3.76282 0.999983 3.81197 0.999983 3.8718V11.4615C0.999983 11.5213 1.01922 11.5705 1.05768 11.6089C1.09615 11.6474 1.1453 11.6667 1.20513 11.6667H11.4615C11.5213 11.6667 11.5705 11.6474 11.609 11.6089C11.6474 11.5705 11.6667 11.5213 11.6667 11.4615V5.79487H12.6666V11.4615C12.6666 11.7983 12.55 12.0833 12.3166 12.3166C12.0833 12.55 11.7983 12.6666 11.4615 12.6666H1.20513ZM11.6667 3.66665V2.33332H10.3333V1.33333H11.6667V0H12.6666V1.33333H14V2.33332H12.6666V3.66665H11.6667ZM6.33332 10.4102C7.09827 10.4102 7.74677 10.1442 8.27882 9.61215C8.81086 9.08011 9.07689 8.43161 9.07689 7.66665C9.07689 6.90169 8.81086 6.2532 8.27882 5.72115C7.74677 5.18911 7.09827 4.92308 6.33332 4.92308C5.56836 4.92308 4.91986 5.18911 4.38782 5.72115C3.85577 6.2532 3.58975 6.90169 3.58975 7.66665C3.58975 8.43161 3.85577 9.08011 4.38782 9.61215C4.91986 10.1442 5.56836 10.4102 6.33332 10.4102ZM6.33332 9.41025C5.84101 9.41025 5.42733 9.24273 5.09228 8.90768C4.75724 8.57264 4.58972 8.15896 4.58972 7.66665C4.58972 7.17434 4.75724 6.76066 5.09228 6.42562C5.42733 6.09057 5.84101 5.92305 6.33332 5.92305C6.82563 5.92305 7.23931 6.09057 7.57435 6.42562C7.9094 6.76066 8.07692 7.17434 8.07692 7.66665C8.07692 8.15896 7.9094 8.57264 7.57435 8.90768C7.23931 9.24273 6.82563 9.41025 6.33332 9.41025Z" fill="#1C1B1F"/>
</svg>
