<svg width="25" height="24" viewBox="0 0 25 24" fill="none" xmlns="http://www.w3.org/2000/svg">
<g clip-path="url(#clip0_3539_1817)">
<path d="M21.8076 8.84291C21.9396 9.43691 22.0161 10.0474 22.0161 10.6744C22.0161 15.5164 17.9061 19.5529 12.4941 20.4199C13.6386 20.8819 14.9211 21.1519 16.2876 21.1519C17.5761 21.1519 18.7926 20.9149 19.8906 20.5024C21.2811 20.9764 22.7991 21.0994 24.0546 21.0994C23.4876 20.4195 23.0074 19.6718 22.6251 18.8734C24.0171 17.6314 24.8751 15.9859 24.8751 14.1739C24.8751 12.0319 23.6796 10.1224 21.8076 8.84291ZM1.97906 19.0639C2.10956 19.3114 2.36606 19.4659 2.64356 19.4659C2.65556 19.4659 2.66906 19.4659 2.67956 19.4644C3.47306 19.4269 5.05106 18.9004 6.72206 17.8399C7.61606 17.9974 9.61856 18.2944 10.3176 18.2944C15.5931 18.2944 19.7241 14.6209 19.7241 9.93041C19.7241 5.31791 15.5061 1.56641 10.3176 1.56641C5.12906 1.56641 0.914062 5.31641 0.914062 9.92891C0.914062 12.0754 1.85906 14.1499 3.52256 15.7024C3.1467 16.6158 2.65139 17.4753 2.04956 18.2584C1.96226 18.372 1.90924 18.5082 1.89675 18.6509C1.88426 18.7936 1.91282 18.9369 1.97906 19.0639ZM2.41406 9.92891C2.41406 6.14441 5.96006 3.06491 10.3206 3.06491C14.6811 3.06491 18.2271 6.14441 18.2271 9.92891C18.2271 13.8409 14.8281 16.7929 10.3206 16.7929C9.72806 16.7929 7.37006 16.4494 6.72206 16.3129C6.62477 16.2926 6.52442 16.2918 6.42682 16.3106C6.32923 16.3294 6.23634 16.3674 6.15356 16.4224C5.58867 16.7984 4.99422 17.128 4.37606 17.4079C4.66256 16.8694 4.91006 16.3114 5.11706 15.7354C5.22356 15.4369 5.13206 15.1039 4.88906 14.9029C3.29306 13.5904 2.41406 11.8234 2.41406 9.92891Z" fill="#4F4F4F"/>
</g>
<defs>
<clipPath id="clip0_3539_1817">
<rect width="24" height="24" fill="white" transform="translate(0.875)"/>
</clipPath>
</defs>
</svg>
