<svg width="92" height="92" viewBox="0 0 92 92" fill="none" xmlns="http://www.w3.org/2000/svg">
<rect width="92" height="92" rx="18.1728" fill="#828282"/>
<path d="M45.9994 45.9999C50.5361 45.9999 54.2137 42.3222 54.2137 37.7856C54.2137 33.2489 50.5361 29.5713 45.9994 29.5713C41.4628 29.5713 37.7852 33.2489 37.7852 37.7856C37.7852 42.3222 41.4628 45.9999 45.9994 45.9999Z" stroke="white" stroke-width="2.46429" stroke-linecap="round" stroke-linejoin="round"/>
<path d="M60.111 62.4287C60.111 56.0709 53.786 50.9287 45.9989 50.9287C38.2117 50.9287 31.8867 56.0709 31.8867 62.4287" stroke="white" stroke-width="2.46429" stroke-linecap="round" stroke-linejoin="round"/>
<rect x="65.7109" y="65.7153" width="23" height="23" rx="11.5" fill="white"/>
<path d="M78.0714 71.4651L72.4515 77.4136C72.2393 77.6395 72.0339 78.0844 71.9928 78.3924L71.7396 80.6103C71.6506 81.4112 72.2256 81.9588 73.0196 81.8219L75.2238 81.4454C75.5318 81.3907 75.9631 81.1648 76.1753 80.932L81.7952 74.9835C82.7672 73.9567 83.2053 72.7862 81.6925 71.3555C80.1866 69.9386 79.0434 70.4383 78.0714 71.4651Z" stroke="#101010" stroke-width="1.64286" stroke-miterlimit="10" stroke-linecap="round" stroke-linejoin="round"/>
<path d="M77.1328 72.4575C77.4272 74.3468 78.9605 75.7911 80.8635 75.9828" stroke="#101010" stroke-width="1.64286" stroke-miterlimit="10" stroke-linecap="round" stroke-linejoin="round"/>
<path d="M71.0508 84.0601H83.3722" stroke="#101010" stroke-width="1.64286" stroke-miterlimit="10" stroke-linecap="round" stroke-linejoin="round"/>
</svg>
