<svg width="20" height="20" viewBox="0 0 20 20" fill="none" xmlns="http://www.w3.org/2000/svg">
<mask id="mask0_3525_4464" style="mask-type:alpha" maskUnits="userSpaceOnUse" x="0" y="0" width="20" height="20">
<rect width="20" height="20" fill="#D9D9D9"/>
</mask>
<g mask="url(#mask0_3525_4464)">
<path d="M4.50128 15.5001H5.42755L13.6247 7.30292L12.6984 6.37664L4.50128 14.5738V15.5001ZM3.41797 16.5834V14.1171L13.785 3.73406C13.8971 3.6196 14.0177 3.5381 14.1469 3.48956C14.276 3.44102 14.4114 3.41675 14.553 3.41675C14.6946 3.41675 14.8298 3.43946 14.9586 3.48487C15.0875 3.53028 15.2123 3.61066 15.333 3.72604L16.2673 4.65231C16.3827 4.77303 16.4644 4.89806 16.5125 5.02739C16.5606 5.15671 16.5846 5.2898 16.5846 5.42664C16.5846 5.5726 16.5593 5.71193 16.5087 5.84462C16.4581 5.9773 16.3776 6.09855 16.2673 6.20837L5.88428 16.5834H3.41797ZM13.1534 6.84792L12.6984 6.37664L13.6247 7.30292L13.1534 6.84792Z" fill="#1C1B1F"/>
</g>
</svg>
