<svg width="117" height="124" viewBox="0 0 117 124" fill="none" xmlns="http://www.w3.org/2000/svg">
<circle cx="62.1002" cy="69.5631" r="54.2877" fill="#F1F1F1"/>
<path d="M109.883 47.6897C107.752 55.3966 100.765 72.5719 88.2004 75.7648C75.6358 78.9576 69.6685 75.5813 68.4639 73.9757" stroke="#CCCCCC" stroke-width="1.38138"/>
<mask id="path-3-inside-1_3542_1761" fill="white">
<path fill-rule="evenodd" clip-rule="evenodd" d="M48.0793 30.9309L36.1406 43.7623V108.195H88.0559V43.7623L76.4414 30.9309H48.0793ZM58.5038 52.4932C61.503 52.4932 63.9343 50.0619 63.9343 47.0627C63.9343 44.0635 61.503 41.6322 58.5038 41.6322C55.5047 41.6322 53.0733 44.0635 53.0733 47.0627C53.0733 50.0619 55.5047 52.4932 58.5038 52.4932Z"/>
</mask>
<path fill-rule="evenodd" clip-rule="evenodd" d="M48.0793 30.9309L36.1406 43.7623V108.195H88.0559V43.7623L76.4414 30.9309H48.0793ZM58.5038 52.4932C61.503 52.4932 63.9343 50.0619 63.9343 47.0627C63.9343 44.0635 61.503 41.6322 58.5038 41.6322C55.5047 41.6322 53.0733 44.0635 53.0733 47.0627C53.0733 50.0619 55.5047 52.4932 58.5038 52.4932Z" fill="white"/>
<path d="M36.1406 43.7623L35.3654 43.041L35.0818 43.3459V43.7623H36.1406ZM48.0793 30.9309V29.8721H47.6182L47.3041 30.2096L48.0793 30.9309ZM36.1406 108.195H35.0818V109.254H36.1406V108.195ZM88.0559 108.195V109.254H89.1148V108.195H88.0559ZM88.0559 43.7623H89.1148V43.3542L88.841 43.0517L88.0559 43.7623ZM76.4414 30.9309L77.2265 30.2203L76.9112 29.8721H76.4414V30.9309ZM36.9158 44.4835L48.8545 31.6522L47.3041 30.2096L35.3654 43.041L36.9158 44.4835ZM37.1995 108.195V43.7623H35.0818V108.195H37.1995ZM88.0559 107.136H36.1406V109.254H88.0559V107.136ZM86.9971 43.7623V108.195H89.1148V43.7623H86.9971ZM75.6564 31.6415L87.2709 44.4728L88.841 43.0517L77.2265 30.2203L75.6564 31.6415ZM48.0793 31.9898H76.4414V29.8721H48.0793V31.9898ZM62.8755 47.0627C62.8755 49.4771 60.9182 51.4344 58.5038 51.4344V53.5521C62.0878 53.5521 64.9932 50.6467 64.9932 47.0627H62.8755ZM58.5038 42.6911C60.9182 42.6911 62.8755 44.6483 62.8755 47.0627H64.9932C64.9932 43.4788 62.0878 40.5734 58.5038 40.5734V42.6911ZM54.1322 47.0627C54.1322 44.6483 56.0894 42.6911 58.5038 42.6911V40.5734C54.9199 40.5734 52.0145 43.4788 52.0145 47.0627H54.1322ZM58.5038 51.4344C56.0894 51.4344 54.1322 49.4771 54.1322 47.0627H52.0145C52.0145 50.6467 54.9199 53.5521 58.5038 53.5521V51.4344Z" fill="#CCCCCC" mask="url(#path-3-inside-1_3542_1761)"/>
<path d="M54.8649 69.5633C54.8649 70.2644 54.7268 70.9586 54.4585 71.6063C54.1902 72.2541 53.797 72.8426 53.3012 73.3383C52.8055 73.8341 52.2169 74.2273 51.5692 74.4956C50.9215 74.7639 50.2273 74.902 49.5262 74.902C48.8251 74.902 48.1309 74.7639 47.4832 74.4956C46.8354 74.2273 46.2469 73.8341 45.7512 73.3383C45.2554 72.8426 44.8622 72.2541 44.5939 71.6063C44.3256 70.9586 44.1875 70.2644 44.1875 69.5633H45.3645C45.3645 70.1098 45.4721 70.651 45.6813 71.1559C45.8904 71.6609 46.197 72.1196 46.5834 72.5061C46.9699 72.8925 47.4286 73.1991 47.9336 73.4082C48.4385 73.6174 48.9797 73.725 49.5262 73.725C50.0727 73.725 50.6139 73.6174 51.1188 73.4082C51.6237 73.1991 52.0825 72.8925 52.469 72.5061C52.8554 72.1196 53.162 71.6609 53.3711 71.1559C53.5803 70.651 53.6879 70.1098 53.6879 69.5633H54.8649Z" fill="#CCCCCC"/>
<path d="M63.8336 83.7009C63.8336 82.9998 63.6956 82.3055 63.4273 81.6578C63.159 81.0101 62.7657 80.4216 62.27 79.9258C61.7742 79.4301 61.1857 79.0368 60.538 78.7685C59.8903 78.5002 59.196 78.3622 58.4949 78.3622C57.7939 78.3622 57.0996 78.5002 56.4519 78.7685C55.8042 79.0368 55.2157 79.4301 54.7199 79.9258C54.2242 80.4216 53.8309 81.0101 53.5626 81.6578C53.2943 82.3055 53.1562 82.9998 53.1563 83.7009H54.3332C54.3332 83.1543 54.4409 82.6132 54.65 82.1082C54.8592 81.6033 55.1657 81.1445 55.5522 80.7581C55.9386 80.3716 56.3974 80.0651 56.9023 79.8559C57.4072 79.6468 57.9484 79.5391 58.4949 79.5391C59.0415 79.5391 59.5826 79.6468 60.0876 79.8559C60.5925 80.0651 61.0513 80.3716 61.4377 80.7581C61.8242 81.1445 62.1307 81.6033 62.3399 82.1082C62.549 82.6132 62.6567 83.1543 62.6567 83.7009H63.8336Z" fill="#CCCCCC"/>
<path d="M72.8102 69.5633C72.8102 70.2644 72.6721 70.9586 72.4038 71.6063C72.1355 72.2541 71.7423 72.8426 71.2465 73.3383C70.7508 73.8341 70.1623 74.2273 69.5145 74.4956C68.8668 74.7639 68.1726 74.902 67.4715 74.902C66.7704 74.902 66.0762 74.7639 65.4285 74.4956C64.7808 74.2273 64.1922 73.8341 63.6965 73.3383C63.2007 72.8426 62.8075 72.2541 62.5392 71.6063C62.2709 70.9586 62.1328 70.2644 62.1328 69.5633H63.3098C63.3098 70.1098 63.4174 70.651 63.6266 71.1559C63.8357 71.6609 64.1423 72.1196 64.5287 72.5061C64.9152 72.8925 65.374 73.1991 65.8789 73.4082C66.3838 73.6174 66.925 73.725 67.4715 73.725C68.018 73.725 68.5592 73.6174 69.0641 73.4082C69.5691 73.1991 70.0278 72.8925 70.4143 72.5061C70.8007 72.1196 71.1073 71.6609 71.3164 71.1559C71.5256 70.651 71.6332 70.1098 71.6332 69.5633H72.8102Z" fill="#CCCCCC"/>
<rect x="36.7987" y="95.3514" width="50.5983" height="12.6621" fill="#FAFAFA" stroke="#CCCCCC" stroke-width="1.05884"/>
<circle cx="57.1902" cy="15.7852" r="2.94801" fill="#C4C4C4"/>
<circle cx="94.8704" cy="17.1087" r="1.32355" fill="#C4C4C4"/>
<circle cx="87.847" cy="37.9329" r="1.32355" fill="#C4C4C4"/>
<circle cx="107.057" cy="52.04" r="1.72062" fill="#C4C4C4"/>
<circle cx="26.4784" cy="11.1164" r="1.72062" fill="#C4C4C4"/>
<path d="M78.8302 3.44838L80.4139 1.86467L81.5589 3.00968L79.9752 4.59339L81.7651 6.38329L80.5586 7.58972L78.7687 5.79982L77.1806 7.38792L76.0356 6.24291L77.6237 4.65481L75.9084 2.93949L77.1148 1.73306L78.8302 3.44838Z" fill="#E6E6E6"/>
<path d="M37.3571 19.2945L38.6321 18.0196L39.5538 18.9414L38.2789 20.2163L39.7198 21.6572L38.7486 22.6284L37.3077 21.1875L36.0292 22.466L35.1074 21.5442L36.3859 20.2657L35.005 18.8849L35.9762 17.9137L37.3571 19.2945Z" fill="#E6E6E6"/>
<path d="M20.3059 40.9488L21.1183 40.1363L21.7058 40.7237L20.8933 41.5362L21.8115 42.4545L21.1926 43.0734L20.2743 42.1551L19.4596 42.9699L18.8722 42.3824L19.6869 41.5677L18.8069 40.6877L19.4259 40.0688L20.3059 40.9488Z" fill="#E6E6E6"/>
<path d="M107.126 32.9561L107.939 32.1436L108.526 32.731L107.714 33.5435L108.632 34.4618L108.013 35.0807L107.095 34.1625L106.28 34.9772L105.693 34.3898L106.507 33.575L105.627 32.695L106.246 32.0761L107.126 32.9561Z" fill="#E6E6E6"/>
<path d="M1.61719 90.6474C4.73114 79.3866 14.9395 54.291 33.2982 49.6258C51.657 44.9606 60.3761 49.8939 62.1361 52.2399" stroke="#CCCCCC" stroke-width="1.38138"/>
</svg>
