<svg width="25" height="24" viewBox="0 0 25 24" fill="none" xmlns="http://www.w3.org/2000/svg">
<g clip-path="url(#clip0_3539_1813)">
<path d="M18.125 20H4.125V6H13.125V4H4.125C3.025 4 2.125 4.9 2.125 6V20C2.125 21.1 3.025 22 4.125 22H18.125C19.225 22 20.125 21.1 20.125 20V11H18.125V20ZM10.335 16.83L8.375 14.47L5.625 18H16.625L13.085 13.29L10.335 16.83ZM20.125 4V1H18.125V4H15.125C15.135 4.01 15.125 6 15.125 6H18.125V8.99C18.135 9 20.125 8.99 20.125 8.99V6H23.125V4H20.125Z" fill="#4F4F4F"/>
</g>
<defs>
<clipPath id="clip0_3539_1813">
<rect width="24" height="24" fill="white" transform="translate(0.125)"/>
</clipPath>
</defs>
</svg>
