<svg width="25" height="24" viewBox="0 0 25 24" fill="none" xmlns="http://www.w3.org/2000/svg">
<g clip-path="url(#clip0_3539_2054)">
<path d="M19.125 7V9.99C19.125 9.99 17.135 10 17.125 9.99V7H14.125C14.125 7 14.135 5.01 14.125 5H17.125V2H19.125V5H22.125V7H19.125ZM16.125 11V8H13.125V5H5.125C4.025 5 3.125 5.9 3.125 7V19C3.125 20.1 4.025 21 5.125 21H17.125C18.225 21 19.125 20.1 19.125 19V11H16.125ZM5.125 19L8.125 15L10.125 18L13.125 14L17.125 19H5.125Z" fill="#FF8958"/>
</g>
<defs>
<clipPath id="clip0_3539_2054">
<rect width="24" height="24" fill="white" transform="translate(0.125)"/>
</clipPath>
</defs>
</svg>
