<svg width="60" height="60" viewBox="0 0 60 60" fill="none" xmlns="http://www.w3.org/2000/svg">
<rect width="60" height="60" rx="30" fill="#06C270" fill-opacity="0.1"/>
<mask id="mask0_2728_19842" style="mask-type:alpha" maskUnits="userSpaceOnUse" x="10" y="9" width="40" height="41">
<rect x="10" y="9.82617" width="40" height="40" fill="#06C270"/>
</mask>
<g mask="url(#mask0_2728_19842)">
<path d="M27.4644 37.7962L39.9144 25.3461L37.9629 23.3946L27.4644 33.8931L22.1866 28.6153L20.235 30.5669L27.4644 37.7962ZM30.0956 47.5113C27.6624 47.5113 25.3753 47.0495 23.2344 46.1261C21.0933 45.2026 19.231 43.9494 17.6472 42.3664C16.0635 40.7833 14.8096 38.9217 13.8858 36.7817C12.9619 34.6417 12.5 32.355 12.5 29.9218C12.5 27.4886 12.9617 25.2015 13.8852 23.0605C14.8086 20.9195 16.0619 19.0571 17.6449 17.4734C19.228 15.8896 21.0895 14.6358 23.2296 13.712C25.3696 12.7881 27.6562 12.3262 30.0894 12.3262C32.5227 12.3262 34.8098 12.7879 36.9507 13.7114C39.0918 14.6348 40.9541 15.8881 42.5379 17.4711C44.1216 19.0541 45.3755 20.9157 46.2993 23.0558C47.2232 25.1958 47.6851 27.4824 47.6851 29.9156C47.6851 32.3488 47.2234 34.6359 46.2999 36.7769C45.3765 38.9179 44.1232 40.7803 42.5402 42.364C40.9571 43.9478 39.0956 45.2016 36.9555 46.1255C34.8155 47.0493 32.5289 47.5113 30.0956 47.5113Z" fill="#06C270"/>
</g>
</svg>
