<svg width="25" height="24" viewBox="0 0 25 24" fill="none" xmlns="http://www.w3.org/2000/svg">
<path d="M9.51873 20.7821V17.7152C9.51872 16.9381 10.1507 16.3067 10.9334 16.3018H13.8076C14.5939 16.3018 15.2313 16.9346 15.2313 17.7152V20.7732C15.2312 21.4473 15.779 21.9951 16.4579 22H18.4188C19.3346 22.0023 20.2138 21.6428 20.8622 21.0007C21.5106 20.3586 21.875 19.4868 21.875 18.5775V9.86585C21.875 9.13139 21.5471 8.43471 20.9796 7.9635L14.318 2.67427C13.1535 1.74912 11.4904 1.77901 10.3604 2.74538L3.84201 7.9635C3.24774 8.42082 2.89255 9.11956 2.875 9.86585V18.5686C2.875 20.4637 4.42238 22 6.33117 22H8.24729C8.57417 22.0023 8.88849 21.8751 9.12047 21.6464C9.35246 21.4178 9.48293 21.1067 9.48292 20.7821H9.51873Z" fill="#FF8958"/>
</svg>
