<svg width="20" height="21" viewBox="0 0 20 21" fill="none" xmlns="http://www.w3.org/2000/svg">
<mask id="mask0_3456_13603" style="mask-type:alpha" maskUnits="userSpaceOnUse" x="0" y="0" width="20" height="21">
<rect y="0.733887" width="20" height="20" fill="#D9D9D9"/>
</mask>
<g mask="url(#mask0_3456_13603)">
<path d="M6.00126 12.4134C5.53118 12.4134 5.13375 12.251 4.80897 11.9262C4.48419 11.6015 4.3218 11.204 4.3218 10.7339C4.3218 10.2639 4.48419 9.86643 4.80897 9.54166C5.13375 9.21688 5.53118 9.05449 6.00126 9.05449C6.47134 9.05449 6.86878 9.21688 7.19355 9.54166C7.51833 9.86643 7.68072 10.2639 7.68072 10.7339C7.68072 11.204 7.51833 11.6015 7.19355 11.9262C6.86878 12.251 6.47134 12.4134 6.00126 12.4134ZM6.00126 15.3173C4.7299 15.3173 3.64818 14.8712 2.75609 13.9791C1.86401 13.087 1.41797 12.0053 1.41797 10.7339C1.41797 9.46259 1.86401 8.38086 2.75609 7.48878C3.64818 6.59668 4.7299 6.15063 6.00126 6.15063C6.86664 6.15063 7.66391 6.37767 8.39307 6.83174C9.12224 7.28579 9.68394 7.89209 10.0782 8.65064L17.4131 8.65064L19.4964 10.7339L16.2913 13.673L14.6615 12.5112L13.2417 13.689L11.3859 12.3173H10.3282C10.0589 13.251 9.5146 13.9844 8.69516 14.5176C7.87571 15.0507 6.97775 15.3173 6.00126 15.3173ZM6.00126 14.2339C6.89764 14.2339 7.67648 13.9474 8.3378 13.3742C8.99912 12.801 9.37038 12.0876 9.45157 11.2339H11.7577L13.208 12.2932L14.6071 11.1442L16.2304 12.2884L17.9308 10.7131L16.9724 9.73395L9.34741 9.73395C9.09955 9.01921 8.67621 8.42386 8.07739 7.94789C7.47857 7.47193 6.78653 7.23395 6.00126 7.23395C5.02904 7.23395 4.20265 7.57423 3.52209 8.25478C2.84154 8.93534 2.50126 9.76173 2.50126 10.7339C2.50126 11.7062 2.84154 12.5326 3.52209 13.2131C4.20265 13.8937 5.02904 14.2339 6.00126 14.2339Z" fill="#1C1B1F"/>
</g>
</svg>
