<svg width="20" height="21" viewBox="0 0 20 21" fill="none" xmlns="http://www.w3.org/2000/svg">
<mask id="mask0_3456_13482" style="mask-type:alpha" maskUnits="userSpaceOnUse" x="0" y="0" width="20" height="21">
<rect y="0.733887" width="20" height="20" fill="#D9D9D9"/>
</mask>
<g mask="url(#mask0_3456_13482)">
<path d="M5.7518 18.3173C5.38182 18.3173 5.06702 18.1864 4.80741 17.9247C4.54778 17.663 4.41797 17.3473 4.41797 16.9775V9.49043C4.41797 9.12066 4.54882 8.80493 4.81053 8.54324C5.07223 8.28153 5.38795 8.15067 5.75772 8.15067H6.41797V6.15067C6.41797 5.1562 6.76703 4.31037 7.46516 3.61317C8.16327 2.91598 9.01021 2.56738 10.006 2.56738C11.0018 2.56738 11.8471 2.91598 12.5421 3.61317C13.2371 4.31037 13.5846 5.1562 13.5846 6.15067V8.15067H14.2448C14.6146 8.15067 14.9303 8.28153 15.192 8.54324C15.4537 8.80493 15.5846 9.12066 15.5846 9.49043V16.9775C15.5846 17.3473 15.4537 17.663 15.1918 17.9247C14.9299 18.1864 14.614 18.3173 14.244 18.3173H5.7518ZM5.75772 17.234H14.2448C14.3196 17.234 14.3811 17.2099 14.4292 17.1619C14.4772 17.1138 14.5013 17.0523 14.5013 16.9775V9.49043C14.5013 9.41563 14.4772 9.3542 14.4292 9.30611C14.3811 9.25803 14.3196 9.23399 14.2448 9.23399H5.75772C5.68293 9.23399 5.62149 9.25803 5.57341 9.30611C5.52532 9.3542 5.50128 9.41563 5.50128 9.49043V16.9775C5.50128 17.0523 5.52532 17.1138 5.57341 17.1619C5.62149 17.2099 5.68293 17.234 5.75772 17.234ZM10.0057 14.5256C10.366 14.5256 10.6706 14.3997 10.9195 14.1478C11.1685 13.8959 11.2929 13.5899 11.2929 13.2296C11.2929 12.8693 11.167 12.5647 10.9151 12.3157C10.6632 12.0668 10.3572 11.9423 9.99686 11.9423C9.63656 11.9423 9.33195 12.0683 9.08303 12.3202C8.8341 12.572 8.70964 12.8781 8.70964 13.2384C8.70964 13.5987 8.83557 13.9033 9.08745 14.1522C9.33932 14.4012 9.64541 14.5256 10.0057 14.5256ZM7.50128 8.15067H12.5013V6.15067C12.5013 5.45623 12.2582 4.86595 11.7721 4.37984C11.286 3.89373 10.6957 3.65067 10.0013 3.65067C9.30684 3.65067 8.71656 3.89373 8.23045 4.37984C7.74434 4.86595 7.50128 5.45623 7.50128 6.15067V8.15067Z" fill="#1C1B1F"/>
</g>
</svg>
