<svg width="20" height="21" viewBox="0 0 20 21" fill="none" xmlns="http://www.w3.org/2000/svg">
<mask id="mask0_3456_13425" style="mask-type:alpha" maskUnits="userSpaceOnUse" x="0" y="0" width="20" height="21">
<rect y="0.733887" width="20" height="20" fill="#D9D9D9"/>
</mask>
<g mask="url(#mask0_3456_13425)">
<path d="M4.67818 17.4005C4.29464 17.4005 3.97439 17.272 3.71745 17.0151C3.4605 16.7581 3.33203 16.4379 3.33203 16.0543V13.4582H4.16536V16.0543C4.16536 16.1825 4.21878 16.3 4.32561 16.4069C4.43246 16.5137 4.54998 16.5671 4.67818 16.5671H15.3192C15.4474 16.5671 15.5649 16.5137 15.6718 16.4069C15.7786 16.3 15.832 16.1825 15.832 16.0543V5.41328C15.832 5.28509 15.7786 5.16757 15.6718 5.06072C15.5649 4.95389 15.4474 4.90047 15.3192 4.90047H4.67818C4.54998 4.90047 4.43246 4.95389 4.32561 5.06072C4.21878 5.16757 4.16536 5.28509 4.16536 5.41328V8.00945H3.33203V5.41328C3.33203 5.02974 3.4605 4.7095 3.71745 4.45256C3.97439 4.19561 4.29464 4.06714 4.67818 4.06714H15.3192C15.7028 4.06714 16.023 4.19561 16.2799 4.45256C16.5369 4.7095 16.6654 5.02974 16.6654 5.41328V16.0543C16.6654 16.4379 16.5369 16.7581 16.2799 17.0151C16.023 17.272 15.7028 17.4005 15.3192 17.4005H4.67818ZM9.03716 14.003L8.44741 13.4037L10.7006 11.1505H3.33203V10.3171H10.7006L8.44741 8.06393L9.03716 7.46458L12.3064 10.7338L9.03716 14.003Z" fill="#D92C26"/>
</g>
</svg>
