<svg width="48" height="48" viewBox="0 0 48 48" fill="none" xmlns="http://www.w3.org/2000/svg">
<rect width="48" height="48" rx="24" fill="#E8E8E8"/>
<mask id="mask0_3525_4622" style="mask-type:alpha" maskUnits="userSpaceOnUse" x="12" y="12" width="24" height="24">
<rect x="12" y="12" width="24" height="24" fill="#D9D9D9"/>
</mask>
<g mask="url(#mask0_3525_4622)">
<path d="M17.3008 30.485V29.185H18.3085V22.7234C18.3085 21.3119 18.7527 20.077 19.6412 19.0186C20.5296 17.9603 21.6662 17.3202 23.0508 17.0985V15.8504C23.0508 15.5865 23.143 15.3622 23.3275 15.1775C23.512 14.9928 23.7361 14.9004 23.9996 14.9004C24.2632 14.9004 24.4876 14.9928 24.6729 15.1775C24.8581 15.3622 24.9507 15.5865 24.9507 15.8504V17.0985C26.3353 17.3202 27.4719 17.9603 28.3604 19.0186C29.2488 20.077 29.693 21.3119 29.693 22.7234V29.185H30.7007V30.485H17.3008ZM23.9938 33.2926C23.5497 33.2926 23.1719 33.1352 22.8604 32.8204C22.5488 32.5056 22.3931 32.1271 22.3931 31.685H25.6084C25.6084 32.1337 25.4503 32.5138 25.1341 32.8253C24.8179 33.1369 24.4378 33.2926 23.9938 33.2926Z" fill="#1C1B1F"/>
</g>
</svg>
