<svg width="24" height="25" viewBox="0 0 24 25" fill="none" xmlns="http://www.w3.org/2000/svg">
<mask id="mask0_3542_793" style="mask-type:alpha" maskUnits="userSpaceOnUse" x="0" y="0" width="24" height="25">
<rect y="0.5" width="24" height="24" fill="#D9D9D9"/>
</mask>
<g mask="url(#mask0_3542_793)">
<path d="M5.29688 18.985V17.685H6.30457V11.2234C6.30457 9.81191 6.7488 8.57697 7.63725 7.51864C8.52572 6.46031 9.66226 5.82025 11.0469 5.59847V4.35039C11.0469 4.08651 11.1391 3.86221 11.3236 3.67749C11.5081 3.49276 11.7322 3.40039 11.9957 3.40039C12.2593 3.40039 12.4837 3.49276 12.6689 3.67749C12.8542 3.86221 12.9468 4.08651 12.9468 4.35039V5.59847C14.3314 5.82025 15.468 6.46031 16.3564 7.51864C17.2449 8.57697 17.6891 9.81191 17.6891 11.2234V17.685H18.6968V18.985H5.29688ZM11.9899 21.7926C11.5458 21.7926 11.168 21.6352 10.8565 21.3204C10.5449 21.0056 10.3892 20.6271 10.3892 20.185H13.6045C13.6045 20.6337 13.4464 21.0138 13.1302 21.3253C12.814 21.6369 12.4339 21.7926 11.9899 21.7926ZM7.60452 17.685H16.3892V11.2234C16.3892 9.99907 15.9632 8.96093 15.1113 8.10902C14.2594 7.25708 13.2212 6.83112 11.9968 6.83112C10.7725 6.83112 9.73434 7.25708 8.88242 8.10902C8.03049 8.96093 7.60452 9.99907 7.60452 11.2234V17.685Z" fill="#1C1B1F"/>
</g>
</svg>
