<svg width="20" height="20" viewBox="0 0 20 20" fill="none" xmlns="http://www.w3.org/2000/svg">
<mask id="mask0_3349_32358" style="mask-type:alpha" maskUnits="userSpaceOnUse" x="0" y="0" width="20" height="20">
<rect width="20" height="20" fill="#D9D9D9"/>
</mask>
<g mask="url(#mask0_3349_32358)">
<path d="M10.4947 9.70176C10.8494 9.31608 11.1117 8.87325 11.2816 8.37326C11.4515 7.87326 11.5364 7.35777 11.5364 6.8268C11.5364 6.29583 11.4515 5.78034 11.2816 5.28034C11.1117 4.78034 10.8494 4.3375 10.4947 3.95182C11.2266 4.03623 11.8342 4.3522 12.3176 4.89974C12.8011 5.44727 13.0428 6.08962 13.0428 6.8268C13.0428 7.56397 12.8011 8.20632 12.3176 8.75387C11.8342 9.30141 11.2266 9.61737 10.4947 9.70176ZM14.8697 16.0896V14.1345C14.8697 13.6802 14.7773 13.248 14.5925 12.8378C14.4077 12.4277 14.1454 12.0757 13.8056 11.7819C14.4445 11.9945 15.0327 12.2814 15.57 12.6425C16.1074 13.0036 16.3761 13.5009 16.3761 14.1345V16.0896H14.8697ZM16.3761 10.6248V8.95818H14.7095V7.70822H16.3761V6.04155H17.6261V7.70822H19.2928V8.95818H17.6261V10.6248H16.3761ZM6.95308 9.74343C6.15101 9.74343 5.46439 9.45784 4.89321 8.88668C4.32204 8.3155 4.03646 7.62887 4.03646 6.8268C4.03646 6.02472 4.32204 5.33809 4.89321 4.76693C5.46439 4.19575 6.15101 3.91016 6.95308 3.91016C7.75517 3.91016 8.44179 4.19575 9.01296 4.76693C9.58414 5.33809 9.86973 6.02472 9.86973 6.8268C9.86973 7.62887 9.58414 8.3155 9.01296 8.88668C8.44179 9.45784 7.75517 9.74343 6.95308 9.74343ZM0.703125 16.0896V14.237C0.703125 13.8289 0.813965 13.451 1.03565 13.1032C1.25734 12.7555 1.55355 12.4881 1.92427 12.3012C2.74798 11.8973 3.5789 11.5944 4.41704 11.3925C5.25518 11.1906 6.10053 11.0896 6.95308 11.0896C7.80564 11.0896 8.65099 11.1906 9.48913 11.3925C10.3273 11.5944 11.1582 11.8973 11.9819 12.3012C12.3526 12.4881 12.6488 12.7555 12.8705 13.1032C13.0922 13.451 13.2031 13.8289 13.2031 14.237V16.0896H0.703125ZM6.95308 8.49347C7.41142 8.49347 7.80378 8.33028 8.13017 8.00389C8.45656 7.6775 8.61975 7.28514 8.61975 6.8268C8.61975 6.36847 8.45656 5.97611 8.13017 5.64972C7.80378 5.32333 7.41142 5.16014 6.95308 5.16014C6.49475 5.16014 6.10239 5.32333 5.776 5.64972C5.44961 5.97611 5.28642 6.36847 5.28642 6.8268C5.28642 7.28514 5.44961 7.6775 5.776 8.00389C6.10239 8.33028 6.49475 8.49347 6.95308 8.49347ZM1.95308 14.8396H11.9531V14.237C11.9531 14.0682 11.9042 13.912 11.8065 13.7683C11.7087 13.6246 11.5759 13.5073 11.4082 13.4165C10.6903 13.0629 9.9582 12.795 9.212 12.6128C8.46582 12.4307 7.71285 12.3396 6.95308 12.3396C6.19333 12.3396 5.44036 12.4307 4.69417 12.6128C3.94799 12.795 3.21592 13.0629 2.49796 13.4165C2.33022 13.5073 2.19748 13.6246 2.09973 13.7683C2.00197 13.912 1.95308 14.0682 1.95308 14.237V14.8396Z" fill="#1C1B1F"/>
</g>
</svg>
