<svg width="20" height="21" viewBox="0 0 20 21" fill="none" xmlns="http://www.w3.org/2000/svg">
<path d="M9.99844 9.53379C9.36554 9.53379 8.74685 9.34611 8.22061 8.99449C7.69438 8.64287 7.28422 8.1431 7.04202 7.55838C6.79982 6.97365 6.73645 6.33024 6.85992 5.7095C6.9834 5.08876 7.28817 4.51858 7.7357 4.07105C8.18322 3.62352 8.75341 3.31875 9.37415 3.19528C9.99489 3.0718 10.6383 3.13518 11.223 3.37738C11.8077 3.61958 12.3075 4.02973 12.6591 4.55597C13.0108 5.0822 13.1984 5.70089 13.1984 6.33379C13.1984 7.18248 12.8613 7.99642 12.2612 8.59653C11.6611 9.19665 10.8471 9.53379 9.99844 9.53379ZM9.99844 3.93379C9.52376 3.93379 9.05975 4.07455 8.66507 4.33826C8.27039 4.60198 7.96278 4.97681 7.78113 5.41535C7.59948 5.85389 7.55195 6.33645 7.64455 6.80201C7.73716 7.26756 7.96573 7.6952 8.30138 8.03085C8.63703 8.36649 9.06467 8.59507 9.53022 8.68768C9.99578 8.78028 10.4783 8.73275 10.9169 8.5511C11.3554 8.36945 11.7302 8.06184 11.994 7.66716C12.2577 7.27248 12.3984 6.80847 12.3984 6.33379C12.3984 5.69727 12.1456 5.08682 11.6955 4.63673C11.2454 4.18665 10.635 3.93379 9.99844 3.93379ZM17.5984 18.3338H16.7984V17.9338C16.7984 16.1303 16.082 14.4007 14.8068 13.1255C13.5315 11.8502 11.8019 11.1338 9.99844 11.1338C8.19497 11.1338 6.46536 11.8502 5.19011 13.1255C3.91486 14.4007 3.19844 16.1303 3.19844 17.9338V18.3338H2.39844V17.9338C2.39844 15.9181 3.19915 13.9851 4.62443 12.5598C6.0497 11.1345 7.98279 10.3338 9.99844 10.3338C12.0141 10.3338 13.9472 11.1345 15.3724 12.5598C16.7977 13.9851 17.5984 15.9181 17.5984 17.9338V18.3338Z" fill="#212121"/>
</svg>
