<svg width="24" height="25" viewBox="0 0 24 25" fill="none" xmlns="http://www.w3.org/2000/svg">
<mask id="mask0_3424_14558" style="mask-type:alpha" maskUnits="userSpaceOnUse" x="0" y="0" width="24" height="25">
<rect y="0.233887" width="24" height="24" fill="#D9D9D9"/>
</mask>
<g mask="url(#mask0_3424_14558)">
<path d="M9.69392 21.7338L9.31314 18.6877C9.04519 18.5979 8.77051 18.4723 8.48909 18.3108C8.20768 18.1492 7.95607 17.9761 7.73427 17.7915L4.91312 18.9838L2.60547 14.9839L5.04584 13.1396C5.02276 12.9909 5.00641 12.8416 4.99679 12.6916C4.98718 12.5416 4.98237 12.3922 4.98237 12.2435C4.98237 12.1012 4.98718 11.9566 4.99679 11.8098C5.00641 11.663 5.02276 11.5024 5.04584 11.3281L2.60547 9.48386L4.91312 5.50314L7.72464 6.68584C7.96568 6.4948 8.22305 6.32012 8.49677 6.16179C8.7705 6.00344 9.03942 5.87619 9.30352 5.78004L9.69392 2.73389H14.3092L14.69 5.78966C14.99 5.89863 15.2615 6.02587 15.5044 6.17139C15.7474 6.3169 15.9926 6.48839 16.24 6.68584L19.09 5.50314L21.3977 9.48386L18.9188 11.3569C18.9547 11.5185 18.9743 11.6694 18.9775 11.8098C18.9807 11.9502 18.9823 12.0915 18.9823 12.2339C18.9823 12.3698 18.9791 12.5079 18.9727 12.6483C18.9663 12.7887 18.9432 12.9493 18.9034 13.13L21.3631 14.9839L19.0554 18.9838L16.24 17.7819C15.9926 17.9793 15.74 18.154 15.4823 18.3059C15.2246 18.4579 14.9605 18.5819 14.69 18.6781L14.3092 21.7338H9.69392ZM11.0016 20.2339H12.9669L13.3266 17.555C13.8368 17.4217 14.3032 17.2323 14.7256 16.9867C15.148 16.7412 15.5554 16.4255 15.9477 16.0396L18.4323 17.0839L19.4169 15.3839L17.2477 13.7492C17.3311 13.4903 17.3878 13.2364 17.4179 12.9877C17.448 12.739 17.4631 12.4877 17.4631 12.2339C17.4631 11.9736 17.448 11.7223 17.4179 11.48C17.3878 11.2377 17.3311 10.9903 17.2477 10.7377L19.4362 9.08386L18.4516 7.38386L15.9381 8.44349C15.6035 8.08579 15.2025 7.76976 14.7352 7.49541C14.2679 7.22105 13.7951 7.02681 13.3169 6.91271L13.0016 4.23386H11.0169L10.6862 6.90309C10.1759 7.0236 9.70477 7.20822 9.27272 7.45694C8.84067 7.70565 8.42849 8.02617 8.03619 8.41849L5.55157 7.38386L4.56694 9.08386L6.72657 10.6935C6.64324 10.9307 6.5849 11.1774 6.55157 11.4339C6.51824 11.6903 6.50157 11.9602 6.50157 12.2435C6.50157 12.5037 6.51824 12.7589 6.55157 13.0089C6.5849 13.2589 6.64003 13.5057 6.71694 13.7492L4.56694 15.3839L5.55157 17.0839L8.02657 16.0339C8.40605 16.4236 8.81182 16.7428 9.24387 16.9916C9.67592 17.2403 10.1535 17.4313 10.6766 17.5646L11.0016 20.2339ZM12.0131 15.2338C12.8451 15.2338 13.5532 14.9419 14.1371 14.3579C14.7211 13.7739 15.0131 13.0659 15.0131 12.2339C15.0131 11.4018 14.7211 10.6938 14.1371 10.1098C13.5532 9.52587 12.8451 9.23389 12.0131 9.23389C11.1708 9.23389 10.4602 9.52587 9.88139 10.1098C9.30256 10.6938 9.01314 11.4018 9.01314 12.2339C9.01314 13.0659 9.30256 13.7739 9.88139 14.3579C10.4602 14.9419 11.1708 15.2338 12.0131 15.2338Z" fill="#4C4C4C"/>
</g>
</svg>
