<svg width="12" height="14" viewBox="0 0 12 14" fill="none" xmlns="http://www.w3.org/2000/svg">
<path d="M9.60438 13.2332C9.09533 13.2332 8.6624 13.055 8.30556 12.6985C7.94873 12.342 7.77031 11.9092 7.77031 11.3999C7.77031 11.3056 7.77694 11.2194 7.79018 11.1414C7.80342 11.0633 7.8233 10.9756 7.8498 10.8781L3.65235 8.3076C3.4985 8.49392 3.31277 8.62811 3.09516 8.71017C2.87756 8.79221 2.64705 8.83324 2.40363 8.83324C1.89437 8.83324 1.46151 8.65507 1.10503 8.29874C0.748551 7.9424 0.570312 7.50971 0.570312 7.00067C0.570312 6.49162 0.748551 6.05869 1.10503 5.70185C1.46151 5.34502 1.89437 5.1666 2.40363 5.1666C2.6438 5.1666 2.8735 5.2104 3.09273 5.298C3.31196 5.38561 3.4985 5.51702 3.65235 5.69224L7.8498 3.12172C7.8233 3.02429 7.80342 2.93654 7.79018 2.85848C7.77694 2.78044 7.77031 2.69425 7.77031 2.59992C7.77031 2.09066 7.94848 1.6578 8.30481 1.30132C8.66115 0.944841 9.09383 0.766602 9.60288 0.766602C10.1119 0.766602 10.5449 0.944768 10.9017 1.3011C11.2585 1.65743 11.4369 2.09012 11.4369 2.59917C11.4369 3.10821 11.2587 3.54115 10.9022 3.89798C10.5458 4.25482 10.1129 4.43324 9.60363 4.43324C9.36021 4.43324 9.1297 4.39221 8.9121 4.31017C8.69448 4.22811 8.50876 4.09392 8.35491 3.9076L4.15746 6.47812C4.18396 6.57555 4.20383 6.66315 4.21708 6.7409C4.23032 6.81865 4.23695 6.90454 4.23695 6.99859C4.23695 7.09264 4.23032 7.17899 4.21708 7.25762C4.20383 7.33625 4.18396 7.42429 4.15746 7.52172L8.35491 10.0922C8.50876 9.8948 8.69448 9.75784 8.9121 9.68134C9.1297 9.60485 9.36021 9.5666 9.60363 9.5666C10.1129 9.5666 10.5458 9.74477 10.9022 10.1011C11.2587 10.4574 11.4369 10.8901 11.4369 11.3992C11.4369 11.9082 11.2588 12.3412 10.9024 12.698C10.5461 13.0548 10.1134 13.2332 9.60438 13.2332ZM9.60363 3.5666C9.87303 3.5666 10.1015 3.47284 10.289 3.28532C10.4766 3.09779 10.5703 2.86932 10.5703 2.59992C10.5703 2.33052 10.4766 2.10205 10.289 1.91452C10.1015 1.727 9.87303 1.63324 9.60363 1.63324C9.33423 1.63324 9.10576 1.727 8.91823 1.91452C8.73071 2.10205 8.63695 2.33052 8.63695 2.59992C8.63695 2.86932 8.73071 3.09779 8.91823 3.28532C9.10576 3.47284 9.33423 3.5666 9.60363 3.5666ZM2.40363 7.9666C2.67303 7.9666 2.9015 7.87284 3.08903 7.68532C3.27655 7.49779 3.37031 7.26932 3.37031 6.99992C3.37031 6.73052 3.27655 6.50205 3.08903 6.31452C2.9015 6.127 2.67303 6.03324 2.40363 6.03324C2.13423 6.03324 1.90576 6.127 1.71823 6.31452C1.53071 6.50205 1.43695 6.73052 1.43695 6.99992C1.43695 7.26932 1.53071 7.49779 1.71823 7.68532C1.90576 7.87284 2.13423 7.9666 2.40363 7.9666ZM9.60363 12.3666C9.87303 12.3666 10.1015 12.2728 10.289 12.0853C10.4766 11.8978 10.5703 11.6693 10.5703 11.3999C10.5703 11.1305 10.4766 10.9021 10.289 10.7145C10.1015 10.527 9.87303 10.4332 9.60363 10.4332C9.33423 10.4332 9.10576 10.527 8.91823 10.7145C8.73071 10.9021 8.63695 11.1305 8.63695 11.3999C8.63695 11.6693 8.73071 11.8978 8.91823 12.0853C9.10576 12.2728 9.33423 12.3666 9.60363 12.3666Z" fill="#1C1B1F"/>
</svg>
