<svg width="255" height="292" viewBox="0 0 255 292" fill="none" xmlns="http://www.w3.org/2000/svg">
<path d="M178.262 116.468C177.58 116.936 176.912 117.412 176.245 117.902C169.811 136.512 166.543 156.069 166.578 175.76C166.576 178.037 166.625 180.309 166.727 182.574C167.437 199.567 170.678 216.358 176.344 232.394C176.642 233.238 176.947 234.079 177.257 234.915C177.479 235.516 177.704 236.122 177.947 236.717C178.189 237.016 178.428 237.31 178.666 237.604C178.683 237.617 178.697 237.639 178.714 237.652C178.81 237.77 178.906 237.889 178.993 238.006C179.406 238.51 179.824 239.01 180.236 239.514L179.909 239.551L179.092 239.641L179.095 239.646C179.37 239.628 179.651 239.606 179.928 239.578C180.029 239.574 180.139 239.572 180.242 239.558C180.333 239.552 180.43 239.542 180.522 239.536C192.335 238.678 204.412 237.537 214.955 232.211C225.989 226.632 235.047 215.243 234 202.927C233.858 201.314 233.54 199.722 233.051 198.178C232.847 197.533 232.612 196.902 232.362 196.272C230.841 192.416 228.32 189.034 225.058 186.475C221.797 183.916 217.913 182.272 213.805 181.712C209.698 181.152 205.515 181.695 201.688 183.287C197.86 184.879 194.525 187.462 192.026 190.77C194.678 177.935 208.243 170.831 220.547 166.327C232.86 161.825 246.728 157.07 252.59 145.348C255.864 138.825 255.613 131.409 252.976 124.67C252.896 124.469 252.812 124.262 252.723 124.059C249.428 116.139 243.267 109.754 235.469 106.18C220.872 99.7609 203.639 103.044 189.299 110.017C185.462 111.886 181.773 114.042 178.262 116.468Z" fill="#F2F2F2"/>
<path d="M222.912 196.754C211.738 198.296 201.357 203.392 193.303 211.289C186.447 218.086 181.547 226.604 179.117 235.948C178.976 236.483 178.849 237.016 178.731 237.551C178.423 237.024 178.122 236.485 177.825 235.951C177.634 235.609 177.439 235.261 177.254 234.916C177.476 235.516 177.702 236.122 177.944 236.717C178.186 237.016 178.425 237.311 178.663 237.604C178.68 237.617 178.695 237.639 178.711 237.652C178.808 237.771 178.904 237.889 178.991 238.006C179.403 238.51 179.821 239.01 180.233 239.514L179.907 239.551L179.089 239.641L179.093 239.646C179.368 239.628 179.648 239.606 179.925 239.578C180.026 239.574 180.136 239.572 180.239 239.558C180.265 239.397 180.301 239.237 180.337 239.077C182.703 227.043 189.344 216.273 199.033 208.755C208.722 201.237 220.805 197.48 233.049 198.178C232.845 197.533 232.609 196.902 232.36 196.272C229.202 196.158 226.041 196.319 222.912 196.754Z" fill="white"/>
<path d="M183.499 151.52C179.15 155.098 175.347 159.292 172.211 163.969C170.579 166.461 169.183 169.099 168.041 171.849C167.498 173.126 167.01 174.437 166.578 175.759C166.576 178.037 166.625 180.308 166.727 182.574C167.066 180.842 167.498 179.13 168.02 177.444C168.29 176.519 168.594 175.611 168.921 174.712C172.586 164.642 179.685 156.5 188.206 150.168C197.338 143.392 207.742 138.143 218.344 134.11C229.208 129.96 240.541 127.158 252.087 125.766C252.348 125.732 252.586 125.6 252.751 125.396C252.917 125.192 252.997 124.932 252.976 124.67C252.974 124.441 252.884 124.222 252.723 124.059C252.638 123.983 252.536 123.928 252.426 123.898C252.316 123.868 252.2 123.865 252.089 123.888C250.664 124.06 249.243 124.238 247.824 124.454C236.014 126.216 224.47 129.439 213.457 134.051C202.824 138.487 192.357 144.09 183.499 151.52Z" fill="white"/>
<path d="M239.618 94.1935C241.811 94.1935 243.588 92.4162 243.588 90.2237C243.588 88.0312 241.811 86.2539 239.618 86.2539C237.426 86.2539 235.648 88.0312 235.648 90.2237C235.648 92.4162 237.426 94.1935 239.618 94.1935Z" fill="#F2F2F2"/>
<path d="M161.936 292.007H64.0618C58.194 292 52.5685 289.666 48.4193 285.517C44.2702 281.368 41.9363 275.743 41.9297 269.875V22.1322C41.9363 16.2644 44.2702 10.6389 48.4193 6.48973C52.5685 2.34057 58.194 0.00664784 64.0618 0H161.936C167.804 0.00664671 173.43 2.34056 177.579 6.48972C181.728 10.6389 184.062 16.2644 184.068 22.1322V269.875C184.062 275.743 181.728 281.368 177.579 285.517C173.43 289.666 167.804 292 161.936 292.007Z" fill="#3F3D56"/>
<path d="M160.841 6.87012H149.946C148.974 6.87107 148.042 7.25775 147.354 7.94529C146.667 8.63283 146.28 9.56505 146.279 10.5374C146.277 12.5253 145.487 14.4313 144.081 15.837C142.675 17.2427 140.769 18.0332 138.781 18.0351H85.4987C83.5107 18.0332 81.6047 17.2427 80.1991 15.837C78.7934 14.4313 78.0028 12.5253 78.0009 10.5374C78 9.56505 77.6133 8.63283 76.9258 7.94529C76.2382 7.25775 75.306 6.87107 74.3337 6.87012H64.7275C60.2773 6.87579 56.0109 8.64615 52.8642 11.7929C49.7174 14.9397 47.9471 19.206 47.9414 23.6562V269.638C47.9471 274.088 49.7174 278.354 52.8642 281.501C56.0109 284.648 60.2773 286.418 64.7275 286.424H160.841C165.291 286.418 169.557 284.648 172.704 281.501C175.851 278.354 177.621 274.088 177.627 269.638V23.6562C177.621 19.206 175.851 14.9397 172.704 11.7929C169.557 8.64615 165.291 6.87579 160.841 6.87012Z" fill="white"/>
<path d="M125.563 11.8092H95.5032C95.2185 11.8092 94.9455 11.6961 94.7441 11.4948C94.5428 11.2934 94.4297 11.0204 94.4297 10.7357C94.4297 10.4509 94.5428 10.1779 94.7441 9.97655C94.9455 9.77522 95.2185 9.66211 95.5032 9.66211H125.563C125.848 9.66211 126.121 9.77522 126.322 9.97655C126.523 10.1779 126.636 10.4509 126.636 10.7357C126.636 11.0204 126.523 11.2934 126.322 11.4948C126.121 11.6961 125.848 11.8092 125.563 11.8092Z" fill="white"/>
<path d="M130.285 11.5937C130.759 11.5937 131.143 11.2091 131.143 10.7348C131.143 10.2605 130.759 9.87598 130.285 9.87598C129.81 9.87598 129.426 10.2605 129.426 10.7348C129.426 11.2091 129.81 11.5937 130.285 11.5937Z" fill="white"/>
<path d="M184.932 97.694C184.42 97.6934 183.929 97.4896 183.567 97.1273C183.204 96.7651 183.001 96.2739 183 95.7616V57.9724C183 57.4599 183.204 56.9684 183.566 56.606C183.928 56.2436 184.42 56.04 184.932 56.04C185.445 56.04 185.936 56.2436 186.299 56.606C186.661 56.9684 186.865 57.4599 186.865 57.9724V95.7616C186.864 96.2739 186.66 96.7651 186.298 97.1273C185.936 97.4896 185.445 97.6934 184.932 97.694Z" fill="#3F3D56"/>
<path d="M41.9324 69.7814C41.4201 69.7808 40.9289 69.577 40.5666 69.2147C40.2043 68.8525 40.0006 68.3613 40 67.849V59.2605C40 58.748 40.2036 58.2565 40.566 57.8941C40.9284 57.5317 41.4199 57.3281 41.9324 57.3281C42.4449 57.3281 42.9364 57.5317 43.2988 57.8941C43.6612 58.2565 43.8648 58.748 43.8648 59.2605V67.849C43.8642 68.3613 43.6605 68.8525 43.2982 69.2147C42.9359 69.577 42.4447 69.7808 41.9324 69.7814Z" fill="#3F3D56"/>
<path d="M41.9324 85.6691C41.4201 85.6685 40.9289 85.4647 40.5666 85.1024C40.2043 84.7402 40.0006 84.249 40 83.7367V75.1482C40 74.6357 40.2036 74.1442 40.566 73.7818C40.9284 73.4194 41.4199 73.2158 41.9324 73.2158C42.4449 73.2158 42.9364 73.4194 43.2988 73.7818C43.6612 74.1442 43.8648 74.6357 43.8648 75.1482V83.7367C43.8642 84.249 43.6605 84.7402 43.2982 85.1024C42.9359 85.4647 42.4447 85.6685 41.9324 85.6691Z" fill="#3F3D56"/>
<path d="M174.328 128.778C169.683 131.564 161.406 135.055 152.949 131.467L147.481 129.148L158.437 116.867C149.695 107.227 144.858 94.6749 144.871 81.661C144.884 68.6471 149.747 56.1052 158.509 46.4833C167.272 36.8614 179.306 30.8502 192.262 29.6229C205.217 28.3957 218.166 32.0405 228.579 39.846C238.992 47.6515 246.123 59.0573 248.58 71.8373C251.037 84.6173 248.643 97.854 241.865 108.964C235.088 120.074 224.414 128.26 211.926 131.923C199.439 135.587 186.034 134.465 174.328 128.778Z" fill="white"/>
<path d="M174.351 129.438C169.887 132.059 161.384 135.681 152.715 132.003L146.497 129.366L157.648 116.866C150.71 109.062 146.237 99.3798 144.791 89.0383C143.345 78.6969 144.992 68.1589 149.523 58.7514C154.055 49.3439 161.269 41.4877 170.257 36.1721C179.244 30.8566 189.604 28.3194 200.031 28.8801C210.458 29.4407 220.486 33.0742 228.852 39.323C237.218 45.5717 243.548 54.1562 247.044 63.9953C250.541 73.8345 251.048 84.4883 248.502 94.6151C245.955 104.742 240.469 113.889 232.735 120.904C224.967 127.992 215.255 132.592 204.85 134.113C194.445 135.634 183.823 134.006 174.351 129.438ZM235.516 46.9529C230.952 41.9161 225.441 37.8279 219.297 34.9217C213.153 32.0155 206.496 30.3484 199.708 30.0155C192.919 29.6826 186.131 30.6905 179.732 32.9817C173.333 35.2728 167.448 38.8022 162.414 43.3683C157.379 47.9345 153.294 53.4478 150.39 59.5933C147.487 65.7389 145.823 72.3962 145.494 79.185C145.164 85.9738 146.175 92.761 148.469 99.1589C150.764 105.557 154.296 111.44 158.864 116.472L159.217 116.862L148.454 128.927L153.171 130.928C161.544 134.48 169.829 130.79 174.022 128.275L174.294 128.112L174.578 128.251C185.388 133.503 197.69 134.829 209.371 131.999C221.051 129.17 231.383 122.363 238.592 112.746C245.8 103.129 249.436 91.3022 248.875 79.2967C248.313 67.2911 243.59 55.8554 235.516 46.9529Z" fill="#FF8958"/>
<path opacity="0.1" d="M241.365 81.3872C241.364 69.3536 236.858 57.7563 228.733 48.8793C220.609 40.0022 209.455 34.4888 197.469 33.4247C198.871 33.3018 200.29 33.2354 201.725 33.2354C214.491 33.242 226.732 38.318 235.757 47.3475C244.782 56.377 249.851 68.6208 249.851 81.3871C249.851 94.1535 244.782 106.397 235.757 115.427C226.732 124.456 214.491 129.532 201.725 129.539C200.292 129.539 198.876 129.472 197.475 129.349C209.461 128.283 220.613 122.769 228.736 113.893C236.859 105.016 241.364 93.4196 241.365 81.3872Z" fill="black"/>
<path d="M203.985 71.7842H169.578V74.9794H203.985V71.7842Z" fill="#FF8958"/>
<path d="M229.547 82.8379H169.578V86.0331H229.547V82.8379Z" fill="#FF8958"/>
<path d="M229.488 93.8916H169.578V97.0868H229.488V93.8916Z" fill="#FF8958"/>
<path d="M137.915 136.185C140.998 136.185 143.497 133.685 143.497 130.602C143.497 127.519 140.998 125.02 137.915 125.02C134.831 125.02 132.332 127.519 132.332 130.602C132.332 133.685 134.831 136.185 137.915 136.185Z" fill="#FF8958"/>
<path d="M12.9419 204.643C7.16478 199.403 3.07115 192.569 1.1786 185.002C-0.713942 177.436 -0.320375 169.479 2.30954 162.136C4.93945 154.794 9.68757 148.396 15.9535 143.752C22.2194 139.109 29.7217 136.427 37.5117 136.047C45.3016 135.667 53.0293 137.605 59.7176 141.617C66.4059 145.629 71.7543 151.534 75.0866 158.585C78.4188 165.637 79.5852 173.518 78.4383 181.233C77.2914 188.947 73.8826 196.148 68.643 201.925L76.8998 211.181L72.7795 212.929C66.4055 215.632 60.168 213.002 56.6671 210.902C49.5866 214.342 41.6385 215.585 33.8459 214.469C26.0533 213.354 18.7729 209.932 12.9419 204.643Z" fill="white"/>
<path d="M39.8225 215.781C29.9298 215.774 20.396 212.075 13.0863 205.409C7.25724 200.122 3.12284 193.229 1.20379 185.597C-0.715254 177.965 -0.333127 169.936 2.30205 162.521C4.93723 155.106 9.70764 148.637 16.0125 143.928C22.3173 139.218 29.8746 136.48 37.7326 136.058C45.5907 135.635 53.3981 137.547 60.1715 141.553C66.945 145.559 72.3816 151.48 75.7968 158.569C79.2119 165.659 80.4528 173.601 79.3632 181.395C78.2737 189.188 74.9023 196.485 69.6738 202.366L78.0771 211.786L73.3915 213.774C66.8581 216.545 60.4498 213.816 57.0857 211.841C51.6988 214.43 45.7993 215.777 39.8225 215.781ZM13.6776 204.757C19.4314 210.008 26.632 213.407 34.3431 214.51C42.0542 215.614 49.919 214.372 56.9149 210.946L57.1292 210.842L57.3335 210.965C60.4939 212.86 66.7379 215.64 73.0477 212.964L76.6027 211.456L68.4912 202.363L68.7571 202.07C73.9382 196.357 77.3089 189.236 78.443 181.608C79.5772 173.98 78.4238 166.186 75.1287 159.213C71.8336 152.241 66.5449 146.402 59.9312 142.434C53.3176 138.467 45.6761 136.551 37.9731 136.927C30.2701 137.302 22.8516 139.954 16.6556 144.546C10.4596 149.138 5.76443 155.465 3.16388 162.725C0.563324 169.986 0.174153 177.854 2.04558 185.336C3.91701 192.817 7.96499 199.576 13.6776 204.757Z" fill="#FF8958"/>
<path opacity="0.1" d="M6.58296 175.628C6.58352 166.559 9.97958 157.819 16.1024 151.129C22.2252 144.439 30.6309 140.284 39.6642 139.482C38.6072 139.389 37.538 139.339 36.4569 139.339C26.8359 139.344 17.6107 143.17 10.8094 149.975C4.00812 156.78 0.1875 166.007 0.1875 175.628C0.1875 185.249 4.00812 194.476 10.8094 201.281C17.6107 208.086 26.8359 211.912 36.4569 211.917C37.5363 211.917 38.6038 211.866 39.6592 211.773C30.6268 210.97 22.2224 206.815 16.1007 200.125C9.97894 193.435 6.58353 184.696 6.58296 175.628Z" fill="black"/>
<path d="M60.692 168.392H34.7617V170.8H60.692V168.392Z" fill="#FF8958"/>
<path d="M60.6864 176.721H15.4922V179.129H60.6864V176.721Z" fill="#FF8958"/>
<path d="M60.6813 185.052H15.5312V187.46H60.6813V185.052Z" fill="#FF8958"/>
<path d="M90.335 220.617C93.4173 220.617 95.9161 218.119 95.9161 215.036C95.9161 211.954 93.4173 209.455 90.335 209.455C87.2526 209.455 84.7539 211.954 84.7539 215.036C84.7539 218.119 87.2526 220.617 90.335 220.617Z" fill="#FF8958"/>
</svg>
