<svg width="14" height="16" viewBox="0 0 14 16" fill="none" xmlns="http://www.w3.org/2000/svg">
<path d="M6.12628 10.3829L10.4211 6.0672L9.65514 5.3012L6.12628 8.85087L4.33943 7.06401L3.57343 7.83001L6.12628 10.3829ZM7.00128 15.3011C5.25449 14.8375 3.80391 13.8228 2.64953 12.2572C1.49516 10.6915 0.917969 8.94069 0.917969 7.0047V2.52235L7.00128 0.182617L13.0846 2.52235V7.0047C13.0846 8.94069 12.5074 10.6915 11.353 12.2572C10.1987 13.8228 8.74807 14.8375 7.00128 15.3011ZM7.00128 14.1714C8.44573 13.7235 9.64017 12.8276 10.5846 11.4839C11.5291 10.1401 12.0013 8.64706 12.0013 7.0047V3.2547L7.00128 1.34606L2.00128 3.2547V7.0047C2.00128 8.64706 2.4735 10.1401 3.41795 11.4839C4.36239 12.8276 5.55684 13.7235 7.00128 14.1714Z" fill="#1C1B1F"/>
</svg>
