<svg width="20" height="21" viewBox="0 0 20 21" fill="none" xmlns="http://www.w3.org/2000/svg">
<mask id="mask0_3705_23236" style="mask-type:alpha" maskUnits="userSpaceOnUse" x="0" y="0" width="20" height="21">
<rect y="0.733887" width="20" height="20" fill="#D9D9D9"/>
</mask>
<g mask="url(#mask0_3705_23236)">
<path d="M5.49558 12.2339C5.08186 12.2339 4.72917 12.0866 4.4375 11.792C4.14583 11.4973 4 11.1432 4 10.7295C4 10.3157 4.14731 9.96305 4.44192 9.67139C4.73654 9.37972 5.09071 9.23389 5.50442 9.23389C5.91814 9.23389 6.27083 9.38119 6.5625 9.6758C6.85417 9.97043 7 10.3246 7 10.7383C7 11.152 6.85269 11.5047 6.55808 11.7964C6.26346 12.0881 5.90929 12.2339 5.49558 12.2339ZM9.99558 12.2339C9.58186 12.2339 9.22917 12.0866 8.9375 11.792C8.64583 11.4973 8.5 11.1432 8.5 10.7295C8.5 10.3157 8.64731 9.96305 8.94192 9.67139C9.23654 9.37972 9.59071 9.23389 10.0044 9.23389C10.4181 9.23389 10.7708 9.38119 11.0625 9.6758C11.3542 9.97043 11.5 10.3246 11.5 10.7383C11.5 11.152 11.3527 11.5047 11.0581 11.7964C10.7635 12.0881 10.4093 12.2339 9.99558 12.2339ZM14.4956 12.2339C14.0819 12.2339 13.7292 12.0866 13.4375 11.792C13.1458 11.4973 13 11.1432 13 10.7295C13 10.3157 13.1473 9.96305 13.4419 9.67139C13.7365 9.37972 14.0907 9.23389 14.5044 9.23389C14.9181 9.23389 15.2708 9.38119 15.5625 9.6758C15.8542 9.97043 16 10.3246 16 10.7383C16 11.152 15.8527 11.5047 15.5581 11.7964C15.2635 12.0881 14.9093 12.2339 14.4956 12.2339Z" fill="#1C1B1F"/>
</g>
</svg>
